<?xml version="1.0" standalone="no"?>
<!DOCTYPE svg PUBLIC "-//W3C//DTD SVG 20010904//EN"
 "http://www.w3.org/TR/2001/REC-SVG-20010904/DTD/svg10.dtd">
<svg version="1.0" xmlns="http://www.w3.org/2000/svg"
 width="1170.000000pt" height="1170.000000pt" viewBox="0 0 1170.000000 1170.000000"
 preserveAspectRatio="xMidYMid meet">
<metadata>
Created by potrace 1.14, written by Peter Selinger 2001-2017
</metadata>
<g transform="translate(0.000000,1170.000000) scale(0.100000,-0.100000)"
fill="#000000" stroke="none">
<path d="M10075 11262 c-55 -6 -135 -32 -180 -60 -25 -15 -1193 -1175 -2717
-2699 l-2673 -2673 -1284 1284 c-990 990 -1281 1287 -1275 1299 29 50 322 352
459 474 67 58 272 224 311 251 11 7 57 40 104 73 175 124 562 340 745 416 163
67 249 100 369 139 78 25 149 48 159 49 9 2 21 6 25 9 5 3 19 7 33 10 13 4 83
20 154 37 161 38 141 34 260 53 135 23 141 24 210 32 33 3 68 8 78 10 100 18
637 26 812 11 213 -18 402 -48 708 -112 9 -2 68 -18 130 -36 250 -71 525 -175
740 -281 65 -32 120 -58 123 -58 3 0 156 150 341 334 329 330 334 335 311 349
-105 67 -351 195 -558 290 -182 83 -626 238 -751 262 -10 2 -23 6 -27 9 -7 4
-234 58 -303 71 -138 28 -375 63 -539 80 -269 28 -795 28 -1047 0 -117 -13
-140 -16 -168 -20 -16 -3 -47 -7 -67 -10 -84 -11 -118 -17 -218 -36 -144 -28
-147 -28 -220 -45 -36 -9 -75 -18 -88 -20 -12 -2 -92 -24 -177 -49 -223 -64
-476 -154 -633 -226 -35 -16 -66 -29 -69 -29 -15 0 -345 -168 -464 -236 -288
-165 -648 -419 -849 -600 -19 -17 -60 -53 -90 -80 -109 -97 -352 -345 -460
-470 -87 -100 -288 -359 -326 -419 -10 -16 -21 -32 -24 -35 -6 -5 -95 -139
-115 -172 -187 -311 -268 -463 -366 -685 -59 -132 -147 -352 -154 -383 -2 -8
-15 -47 -29 -87 -22 -62 -80 -248 -90 -293 -2 -8 -13 -51 -25 -95 -40 -160
-92 -421 -106 -540 -4 -27 -8 -59 -10 -71 -2 -11 -6 -52 -10 -90 -4 -38 -9
-80 -11 -94 -30 -253 -25 -847 11 -1115 2 -22 7 -65 10 -95 3 -30 10 -77 15
-105 5 -27 12 -70 15 -95 4 -24 8 -47 10 -50 2 -3 6 -23 9 -45 18 -120 115
-499 172 -670 68 -204 162 -441 233 -585 22 -46 41 -87 41 -90 0 -7 115 -222
139 -260 8 -14 16 -27 16 -30 0 -5 114 -191 157 -258 10 -15 23 -37 29 -49 7
-13 16 -23 21 -23 4 0 8 -6 8 -12 0 -7 9 -24 20 -38 11 -14 55 -72 97 -130 95
-130 214 -279 312 -390 97 -109 345 -357 440 -440 41 -36 79 -70 85 -75 6 -6
36 -30 66 -55 30 -25 57 -47 60 -50 3 -3 32 -25 65 -50 33 -25 62 -47 65 -50
13 -14 157 -116 265 -187 576 -383 1279 -670 1925 -787 47 -9 99 -18 115 -21
38 -7 135 -22 200 -29 28 -4 66 -9 85 -11 35 -5 60 -8 225 -22 185 -15 814 -7
910 12 11 2 49 7 85 10 83 8 285 39 455 70 53 10 396 96 444 111 25 8 89 28
141 45 347 111 833 332 1067 485 28 19 54 34 58 34 8 0 329 214 345 230 3 3
50 39 105 80 266 199 598 513 815 769 25 29 55 65 68 80 38 42 244 319 299
401 340 503 603 1085 747 1658 30 116 74 321 80 365 2 18 9 59 15 92 6 33 13
83 17 110 3 28 8 58 9 67 2 9 7 48 10 85 4 37 8 79 11 93 25 152 25 813 0
1025 -2 17 -7 57 -10 90 -4 33 -8 71 -11 85 -2 14 -7 48 -10 75 -9 76 -16 118
-21 136 -2 9 -7 32 -9 50 -6 42 -8 53 -40 198 -60 273 -180 664 -252 819 l-20
43 -357 -357 c-286 -286 -357 -362 -353 -378 3 -12 17 -61 31 -111 14 -49 27
-101 30 -115 3 -14 10 -43 15 -65 11 -44 57 -290 65 -345 35 -260 41 -346 41
-635 0 -219 -8 -410 -19 -471 -2 -10 -7 -46 -10 -79 -4 -33 -9 -71 -11 -85 -2
-14 -7 -43 -10 -65 -17 -122 -72 -371 -111 -505 -14 -47 -27 -92 -29 -100 -14
-56 -103 -298 -151 -410 -49 -116 -185 -394 -214 -440 -5 -8 -35 -58 -66 -110
-325 -549 -791 -1038 -1329 -1397 -66 -44 -156 -102 -200 -128 -107 -65 -398
-213 -510 -259 -49 -20 -99 -41 -110 -46 -133 -63 -572 -192 -765 -226 -14 -3
-61 -11 -105 -19 -44 -7 -96 -16 -115 -19 -75 -11 -136 -19 -165 -21 -16 -1
-73 -7 -125 -11 -120 -11 -577 -12 -690 -1 -250 23 -377 42 -593 87 -155 33
-182 40 -397 107 -366 114 -753 297 -1076 509 -101 66 -312 218 -324 233 -3 4
-25 22 -50 41 -126 98 -380 341 -516 495 -422 479 -728 1027 -918 1645 -25 84
-87 328 -102 405 -4 22 -8 46 -10 53 -3 15 -24 143 -29 182 -4 24 -10 72 -20
155 -27 230 -27 728 0 950 13 106 16 130 18 132 2 1 525 -519 1162 -1156 638
-636 1178 -1171 1199 -1187 21 -16 44 -34 50 -39 29 -27 191 -128 276 -172 98
-51 257 -114 332 -134 62 -15 208 -48 243 -53 115 -19 328 -25 455 -12 105 11
115 12 205 31 44 9 87 18 95 20 29 6 185 57 220 72 141 59 387 195 420 232 3
4 30 25 60 48 66 50 5755 5739 5782 5782 53 83 74 201 52 296 -28 122 -23 117
-608 703 -507 509 -557 556 -621 588 -38 19 -90 37 -115 40 -25 2 -49 6 -55 7
-5 1 -23 1 -40 -1z"/>
</g>
</svg>
